<svg xmlns="http://www.w3.org/2000/svg" viewBox="0 0 108.06 96.92"><defs><style>.cls-1{fill:#009cbc;}.cls-2{fill:#fff;}.cls-3{fill:#9dc41a;}.cls-4{fill:#e50056;}.cls-5{fill:#f9b000;}</style></defs><g id="Слой_2" data-name="Слой 2"><g id="Layer_1" data-name="Layer 1"><circle class="cls-1" cx="48.44" cy="48.44" r="48.44"/><path class="cls-2" d="M48.32,19.17a29.25,29.25,0,0,0-29.24,29h0V90.47l12.21,6.45V72.17a29.23,29.23,0,1,0,17-53Zm0,46.26a17,17,0,1,1,17-17A17,17,0,0,1,48.32,65.43Z"/><circle class="cls-3" cx="78.51" cy="47.22" r="7.96"/><path class="cls-2" d="M78.51,39.26a8,8,0,1,1-8,8,8,8,0,0,1,8-8m0-1.9a9.87,9.87,0,1,0,9.87,9.86,9.88,9.88,0,0,0-9.87-9.86Z"/><path class="cls-4" d="M68.51,66a4.13,4.13,0,1,1-4.12-4.12A4.12,4.12,0,0,1,68.51,66Z"/><path class="cls-4" d="M103.18,35.6a5.37,5.37,0,1,1-5.37-5.37A5.37,5.37,0,0,1,103.18,35.6Z"/><path class="cls-2" d="M97.81,30.23a5.37,5.37,0,1,1-5.36,5.37,5.37,5.37,0,0,1,5.36-5.37m0-1.9a7.27,7.27,0,1,0,7.28,7.27,7.28,7.28,0,0,0-7.28-7.27Z"/><circle class="cls-5" cx="104.31" cy="50.98" r="3.75"/></g></g></svg>